<?xml version="1.0" standalone="no"?>
<!DOCTYPE svg PUBLIC "-//W3C//DTD SVG 20010904//EN"
 "http://www.w3.org/TR/2001/REC-SVG-20010904/DTD/svg10.dtd">
<svg version="1.0" xmlns="http://www.w3.org/2000/svg"
 width="1024.000000pt" height="1024.000000pt" viewBox="0 0 1024.000000 1024.000000"
 preserveAspectRatio="xMidYMid meet">

<g transform="translate(0.000000,1024.000000) scale(0.100000,-0.100000)"
fill="#000000" stroke="none">
<path d="M5097 8853 c-4 -3 -7 -80 -7 -171 l0 -165 -26 39 c-55 82 -122 134
-173 134 -39 0 -25 -37 22 -58 52 -23 106 -87 144 -168 23 -50 27 -71 26 -137
-1 -51 -7 -86 -17 -101 -14 -22 -13 -25 13 -50 34 -32 41 -32 71 -1 21 23 23
28 11 47 -7 12 -15 47 -18 78 -12 131 73 290 179 334 27 11 36 21 35 36 -1 18
-6 20 -32 14 -49 -10 -87 -36 -130 -90 -22 -28 -44 -59 -50 -68 -7 -12 -9 31
-7 138 2 100 -1 162 -8 175 -11 22 -22 26 -33 14z"/>
<path d="M3000 8757 c-64 -34 -102 -85 -108 -147 -9 -100 45 -179 169 -244 56
-28 63 -35 45 -40 -11 -3 -396 -6 -853 -6 -734 0 -833 -2 -833 -15 0 -19 -150
-16 1330 -20 1355 -4 1600 -1 1600 21 0 13 -117 18 -497 19 -67 0 -75 9 -16
18 40 7 217 55 388 107 55 16 148 42 208 56 59 14 107 28 107 31 0 17 -226
-31 -410 -87 -183 -55 -406 -109 -504 -121 -131 -16 -311 -6 -402 22 -81 24
-179 72 -213 102 -34 31 -61 95 -61 146 0 39 5 49 40 83 35 32 47 38 86 38 36
0 104 -22 104 -33 0 -1 4 -17 10 -35 7 -28 7 -33 -5 -28 -8 3 -28 -8 -44 -24
-45 -41 -42 -78 8 -123 47 -42 113 -64 220 -73 106 -9 210 7 463 71 350 88
478 99 773 67 92 -10 172 -45 203 -90 48 -67 32 -155 -33 -186 -45 -22 -69
-20 -101 7 -23 20 -25 26 -15 46 13 24 8 51 -9 51 -19 0 -60 -48 -60 -71 0
-11 15 -36 33 -54 98 -98 277 -14 277 130 0 114 -107 194 -300 225 -36 5 -129
10 -207 10 -169 0 -290 -19 -570 -89 -261 -66 -316 -75 -438 -68 -196 9 -265
78 -169 168 53 49 16 124 -74 149 -57 15 -95 12 -142 -13z"/>
<path d="M7095 8765 c-46 -16 -85 -57 -85 -87 0 -11 14 -45 31 -74 39 -70 33
-88 -39 -123 -55 -25 -64 -26 -217 -25 -159 1 -161 1 -365 53 -313 81 -375 91
-565 98 -184 6 -286 -6 -376 -45 -50 -22 -113 -73 -131 -106 -65 -121 19 -255
160 -256 105 0 174 96 106 149 -33 26 -57 28 -50 4 21 -70 20 -72 -19 -89 -35
-14 -42 -14 -81 1 -53 20 -74 51 -74 111 0 42 5 51 43 89 45 46 119 75 187 75
21 0 149 -32 286 -71 281 -79 478 -129 511 -129 12 0 25 -4 28 -10 4 -6 -18
-9 -57 -7 -35 1 -160 1 -279 -1 -178 -2 -216 -4 -216 -16 0 -8 12 -16 25 -19
14 -3 672 -5 1464 -5 1417 -1 1438 -1 1438 19 0 19 -16 19 -827 20 -456 1
-838 0 -850 -1 -39 -3 -25 15 25 32 65 23 126 69 159 120 24 35 28 52 28 108
0 56 -4 73 -28 108 -47 72 -151 107 -232 77z m133 -64 c81 -42 91 -156 20
-237 -38 -44 -145 -99 -236 -121 -94 -24 -371 -23 -502 1 -98 18 -329 76 -578
146 -79 22 -167 43 -195 46 -44 6 -48 8 -26 14 43 12 219 12 319 0 52 -6 199
-38 325 -70 329 -84 498 -98 644 -54 60 17 117 66 127 106 5 22 0 34 -24 58
-17 16 -38 30 -47 30 -12 0 -15 6 -9 23 21 71 104 98 182 58z"/>
<path d="M2889 7749 c-107 -89 -195 -165 -197 -170 -2 -5 -8 -9 -13 -9 -5 0
-10 75 -11 167 l-3 167 -20 -29 c-20 -29 -20 -49 -23 -904 -2 -697 0 -876 10
-883 37 -23 38 -18 38 345 l0 354 98 7 c119 8 248 36 326 70 32 14 62 26 67
26 5 0 9 -221 9 -500 0 -275 -2 -500 -5 -500 -3 0 -44 16 -92 36 -157 65 -358
129 -488 154 -33 6 -68 14 -78 16 -17 5 -17 40 -12 687 2 375 6 711 7 747 1
50 -4 76 -21 113 -32 66 -101 140 -169 181 -174 105 -360 83 -504 -59 -50 -51
-118 -156 -118 -184 0 -5 20 3 45 20 24 16 68 35 98 41 82 17 135 -1 196 -67
80 -88 81 -92 81 -343 l0 -221 -170 -103 -170 -103 0 -132 c0 -73 1 -133 3
-133 2 0 74 43 161 95 87 52 161 95 165 95 3 0 6 -140 6 -311 l0 -312 -75 -21
c-42 -12 -99 -35 -128 -51 -67 -36 -157 -132 -199 -210 -40 -75 -74 -165 -63
-165 5 0 12 5 15 10 27 44 313 130 433 130 l32 0 0 -287 c-1 -214 -4 -298 -14
-325 -12 -33 -68 -135 -115 -207 -14 -22 -11 -21 45 10 32 18 122 71 199 117
137 83 141 85 210 87 84 3 130 20 177 69 49 50 58 91 58 264 0 127 -2 151 -16
156 -43 17 -44 14 -44 -156 0 -111 -4 -171 -13 -188 -16 -31 -61 -39 -88 -14
-17 16 -19 33 -19 211 0 106 3 193 8 193 4 0 61 -11 125 -24 81 -17 145 -38
202 -65 46 -23 90 -41 98 -41 8 0 22 9 32 20 10 11 142 114 292 227 l273 207
0 676 c0 651 1 678 20 745 12 39 22 77 23 85 2 15 -456 350 -478 350 -6 0 -99
-73 -206 -161z m-22 -181 c123 -45 235 -136 279 -226 16 -30 20 -66 22 -200 3
-120 0 -167 -9 -178 -46 -56 -288 -124 -440 -124 l-49 0 0 332 0 331 45 44
c52 50 70 52 152 21z"/>
<path d="M6407 7618 c-18 -29 -80 -129 -138 -223 l-106 -170 -96 -3 -97 -3 0
-52 c0 -47 -17 -131 -35 -179 -7 -16 2 -18 94 -18 l102 0 -3 -517 -3 -518 -33
-59 c-18 -32 -32 -59 -30 -61 16 -14 344 -225 350 -225 4 0 69 54 143 120 163
146 188 181 110 157 -37 -11 -71 3 -172 70 l-53 35 0 499 0 498 132 3 131 3
49 120 c26 66 48 121 48 123 0 1 -81 2 -180 2 l-179 0 6 225 c3 124 3 225 -1
225 -4 0 -21 -23 -39 -52z"/>
<path d="M5278 7137 c-112 -89 -227 -180 -256 -202 l-52 -39 0 -267 0 -267
108 -63 c59 -34 109 -64 111 -65 2 -2 -62 -101 -141 -221 -80 -120 -157 -238
-171 -263 -23 -40 -61 -149 -54 -156 1 -1 29 15 62 37 84 55 145 74 240 74 89
0 127 -15 223 -87 34 -25 57 -36 66 -31 7 4 108 80 224 168 l212 160 0 257 0
257 -122 86 c-68 48 -122 91 -120 96 1 6 50 83 109 172 106 159 185 305 198
360 l6 29 -53 -9 c-29 -4 -82 -8 -118 -8 -63 0 -69 2 -135 51 -39 28 -84 60
-101 72 l-32 22 -204 -163z m134 -203 c73 -48 138 -88 144 -91 7 -2 33 5 59
17 26 12 49 19 52 16 9 -9 -77 -154 -143 -241 -70 -94 -235 -285 -246 -285 -5
0 -8 151 -8 335 0 184 2 335 5 335 3 0 65 -39 137 -86z m90 -611 l58 -38 0
-243 0 -243 -75 61 c-42 34 -106 78 -143 97 -63 33 -72 35 -144 31 -43 -2 -78
-2 -78 0 0 5 92 166 127 222 19 30 62 83 96 117 57 59 62 62 82 48 11 -8 46
-31 77 -52z"/>
<path d="M4225 7198 c-55 -39 -174 -122 -265 -185 l-165 -115 -5 -486 c-5
-441 -7 -491 -23 -526 -10 -21 -17 -39 -15 -41 2 -1 46 -27 98 -57 52 -30 156
-92 231 -136 75 -45 139 -82 142 -82 3 0 95 62 204 138 110 75 236 162 281
192 l82 55 0 517 0 518 -72 47 c-200 128 -372 233 -382 232 -6 0 -56 -32 -111
-71z m44 -246 c47 -30 110 -73 139 -94 l52 -39 0 -499 c0 -275 -3 -500 -6
-500 -4 0 -36 22 -73 49 -36 26 -105 74 -153 106 l-88 58 0 499 0 499 21 -12
c12 -6 60 -36 108 -67z"/>
<path d="M7786 6685 l-76 -66 50 -46 50 -45 0 -283 c0 -269 -1 -283 -20 -300
-11 -10 -20 -21 -20 -26 0 -7 139 -126 167 -142 7 -5 45 19 93 58 44 36 83 65
85 65 2 0 36 -27 75 -61 39 -33 75 -59 81 -57 21 7 148 113 149 124 0 6 -9 19
-20 29 -35 31 -40 81 -40 390 l0 301 -65 64 -64 63 -43 -39 c-24 -22 -58 -51
-75 -64 -18 -13 -33 -27 -33 -31 0 -3 20 -27 45 -51 l45 -45 0 -273 0 -272
-31 -29 c-17 -16 -36 -29 -43 -29 -6 0 -28 16 -48 35 l-38 34 0 325 0 324 -62
56 c-35 31 -68 56 -74 56 -6 0 -45 -29 -88 -65z"/>
<path d="M8665 6649 l-125 -100 0 -175 0 -174 56 0 c30 0 64 5 75 10 10 6 19
7 19 2 0 -9 -135 -202 -191 -273 -16 -20 -26 -38 -24 -41 3 -3 -4 -25 -15 -49
-11 -24 -20 -53 -20 -63 0 -17 2 -18 18 -4 66 59 130 60 214 3 l56 -37 151
103 151 103 0 143 c0 79 1 146 2 151 2 4 -33 31 -76 61 l-78 53 -39 -38 c-21
-21 -39 -35 -39 -30 0 10 150 204 208 269 37 42 42 53 42 97 0 43 -3 50 -23
55 -13 4 -43 -3 -70 -14 l-48 -21 -48 35 c-27 19 -53 35 -59 35 -7 0 -68 -45
-137 -101z m131 -85 c48 -42 73 -57 89 -50 8 3 15 2 15 -2 0 -11 -139 -186
-156 -195 -17 -10 -16 -16 -14 113 1 76 6 112 18 132 9 16 17 28 18 28 0 0 14
-12 30 -26z m26 -385 l48 -31 0 -124 c0 -150 -5 -155 -84 -91 -58 47 -117 65
-171 51 l-27 -7 18 29 c43 69 147 204 157 204 6 0 32 -14 59 -31z"/>
<path d="M7305 6716 c-67 -30 -164 -122 -199 -185 -32 -59 -43 -166 -16 -166
22 0 57 59 64 109 8 53 35 90 75 104 27 9 36 6 100 -41 67 -49 70 -54 71 -93
0 -39 -3 -43 -93 -116 -51 -42 -130 -111 -175 -153 l-82 -77 0 -114 0 -113 53
-39 c99 -74 85 -74 175 1 44 37 85 67 92 67 6 0 35 -19 63 -43 81 -68 115 -89
134 -82 10 3 47 32 82 64 l65 58 -51 37 c-28 20 -54 43 -57 52 -3 9 -6 156 -6
327 l0 312 -33 19 c-72 41 -185 96 -198 96 -8 0 -37 -11 -64 -24z m68 -761
c-16 -19 -33 -35 -38 -35 -6 0 -33 15 -60 33 l-50 32 -3 100 -3 100 88 77 88
77 3 -175 2 -174 -27 -35z"/>
<path d="M3470 5110 l0 -169 -52 -36 c-29 -19 -56 -35 -60 -35 -5 0 -8 24 -8
54 0 48 -5 60 -39 103 -50 63 -166 160 -238 197 -106 54 -255 -33 -438 -259
-78 -96 -93 -127 -39 -82 59 49 131 79 191 80 89 0 145 -38 194 -134 18 -36
19 -57 17 -246 l-3 -208 -173 -91 c-96 -50 -177 -95 -182 -100 -4 -5 -10 -79
-12 -165 l-4 -157 41 40 c33 32 265 173 319 194 14 6 16 -21 16 -284 l0 -289
-32 -7 c-18 -4 -74 -27 -125 -51 -99 -48 -178 -116 -227 -194 -31 -49 -76
-162 -76 -191 0 -17 6 -15 52 15 28 19 79 45 112 59 84 35 278 106 288 106 4
0 8 -132 8 -294 l0 -294 -29 -54 c-15 -30 -53 -91 -84 -135 -31 -44 -54 -83
-51 -86 10 -10 77 29 252 144 153 101 192 122 192 101 0 -13 152 -162 165
-162 21 0 67 58 76 96 4 22 9 141 9 265 l0 226 -25 11 c-14 7 -28 12 -30 12
-3 0 -5 -121 -5 -269 0 -169 -4 -272 -10 -276 -5 -3 -10 -1 -10 5 0 7 -6 10
-14 7 -9 -4 -29 10 -50 34 l-36 39 0 265 0 265 52 -21 c28 -11 116 -50 196
-86 121 -56 147 -65 163 -55 10 7 89 69 176 140 87 70 217 174 290 231 l132
104 3 641 3 641 23 58 c13 32 22 59 20 61 -1 1 -25 20 -53 42 -85 69 -472 344
-484 344 -7 0 -86 -63 -176 -140 -90 -77 -166 -140 -167 -140 -2 0 -2 61 0
136 3 142 -2 164 -39 164 -18 0 -19 -10 -19 -170z m278 -213 c138 -88 196
-136 225 -191 21 -38 22 -54 22 -236 l0 -194 -50 -20 c-41 -16 -83 -20 -232
-24 l-183 -4 0 350 0 349 38 26 c20 14 44 24 52 21 8 -3 66 -37 128 -77z
m-278 -692 l0 -675 26 -10 c14 -6 27 -10 30 -10 2 0 4 150 4 334 l0 334 203 4
c144 3 210 8 230 18 15 7 29 11 32 8 3 -3 4 -214 3 -470 l-3 -465 -94 54 c-86
49 -352 162 -493 208 l-58 19 0 618 0 618 23 19 c12 10 36 31 52 45 17 14 33
26 38 26 4 0 7 -304 7 -675z"/>
<path d="M5327 4567 l-127 -112 33 -31 c18 -16 43 -43 55 -58 l22 -29 0 -501
0 -501 -29 -60 -28 -60 106 -78 c58 -43 121 -87 138 -98 l33 -20 107 97 c60
53 112 101 116 105 5 4 -12 26 -38 50 -79 73 -75 43 -75 557 l0 459 26 39 c14
21 44 58 66 81 l40 41 -133 99 c-74 55 -146 107 -160 116 l-25 17 -127 -113z"/>
<path d="M7532 4522 l-263 -159 -2 -504 -2 -504 -34 -63 c-19 -34 -32 -64 -30
-66 6 -5 307 -170 387 -212 l73 -39 56 60 c106 114 363 403 363 408 0 3 -50
-24 -111 -59 -171 -97 -158 -96 -291 -27 l-113 58 -3 172 -2 173 285 190 c157
105 285 193 285 196 0 9 -18 41 -153 269 -146 246 -158 264 -172 265 -6 0
-128 -71 -273 -158z m91 -85 c113 -211 207 -396 207 -410 0 -10 -53 -52 -135
-107 l-135 -90 0 304 c0 282 6 356 27 356 5 0 21 -24 36 -53z"/>
<path d="M6040 4613 c-30 -25 -89 -80 -132 -121 l-76 -75 58 -48 c97 -82 89
-35 92 -566 l3 -468 -35 -68 c-21 -41 -30 -71 -25 -75 6 -4 63 -47 128 -95
l118 -89 122 108 c67 59 124 109 126 111 2 1 -11 15 -29 30 -70 59 -70 54 -70
584 l0 476 50 47 c27 25 55 46 61 46 17 0 118 -85 146 -123 l23 -31 0 -478 c0
-453 -1 -481 -20 -530 -24 -63 -31 -53 120 -161 l106 -74 121 107 121 107 -50
49 c-81 78 -78 57 -78 571 l0 454 31 60 c17 34 29 62 27 64 -32 27 -331 235
-338 235 -6 0 -49 -37 -98 -82 -48 -44 -116 -105 -152 -135 l-65 -54 -3 55 -3
55 -104 81 c-57 44 -108 80 -112 80 -5 0 -33 -21 -63 -47z"/>
<path d="M4745 4612 c-22 -20 -78 -72 -125 -114 l-84 -78 57 -51 c32 -28 64
-64 72 -80 13 -23 15 -102 15 -481 l0 -453 -40 -72 c-37 -69 -38 -73 -20 -83
10 -5 77 -51 148 -100 72 -50 135 -90 141 -90 6 0 62 47 125 104 l114 105 -55
41 c-97 74 -94 55 -91 592 l3 463 38 69 c21 38 34 72 30 75 -5 3 -66 48 -136
99 -70 50 -132 92 -139 92 -7 0 -31 -17 -53 -38z"/>
<path d="M5081 2193 c-25 -17 -27 -55 -5 -89 22 -32 13 -139 -18 -219 -27 -70
-105 -159 -154 -175 -42 -14 -43 -43 -1 -48 50 -6 124 57 170 143 15 29 16 22
17 -140 0 -179 8 -216 36 -180 12 17 15 48 12 183 -2 89 -2 162 -1 162 2 0 11
-17 22 -38 23 -46 101 -119 135 -128 62 -15 93 26 34 45 -53 17 -102 64 -137
131 -43 81 -54 200 -26 275 l19 47 -25 19 c-34 26 -55 29 -78 12z"/>
<path d="M4659 2124 c-34 -14 -69 -58 -69 -87 0 -26 40 -67 67 -67 13 0 23 3
21 8 -2 4 -10 20 -18 36 -14 27 -13 30 13 52 51 44 120 26 153 -38 21 -40 13
-89 -20 -133 -53 -69 -217 -100 -331 -63 -57 19 -400 113 -609 167 l-140 36
309 5 c285 5 310 6 313 23 3 16 -72 17 -1462 17 -1459 0 -1466 0 -1466 -20 0
-20 7 -20 653 -20 866 0 1517 -9 1597 -21 58 -8 228 -53 625 -164 66 -18 137
-37 158 -40 20 -4 37 -12 37 -18 0 -13 -249 -3 -335 13 -33 6 -150 33 -260 60
-111 27 -244 56 -298 64 -128 21 -297 21 -367 0 -70 -21 -120 -69 -120 -116 0
-41 7 -51 48 -72 31 -16 32 -16 32 3 0 11 -4 23 -10 26 -15 10 -12 58 6 84 24
34 77 52 174 58 114 7 244 -9 460 -58 410 -93 555 -113 743 -98 137 10 201 28
260 73 103 79 99 239 -7 290 -42 20 -109 20 -157 0z"/>
<path d="M5415 2121 c-59 -36 -78 -67 -83 -130 -5 -71 11 -106 70 -154 73 -60
129 -72 323 -72 185 0 323 19 565 77 207 49 328 69 470 75 164 7 240 -6 282
-47 36 -36 35 -58 -2 -105 -38 -47 -38 -79 -2 -115 67 -66 184 -60 258 14 71
70 81 163 28 247 -29 47 -117 93 -196 104 -62 9 -62 -6 1 -29 62 -22 127 -70
146 -107 21 -40 19 -117 -5 -156 -35 -59 -117 -80 -180 -48 -39 20 -38 41 5
81 43 39 46 79 10 123 -50 59 -224 92 -387 72 -115 -14 -284 -47 -433 -85
-197 -49 -469 -89 -525 -77 l-35 8 45 12 c25 6 117 34 205 61 227 70 434 129
518 146 60 12 265 16 1200 21 1089 6 1127 7 1127 25 0 18 -44 18 -1462 16
-1293 -3 -1463 -5 -1463 -18 0 -13 40 -16 280 -20 l280 -5 -105 -27 c-58 -15
-184 -52 -280 -81 -96 -30 -230 -69 -298 -87 -115 -32 -127 -33 -187 -23 -76
13 -143 45 -169 80 -11 14 -21 48 -24 74 -4 45 -2 51 31 84 44 44 91 48 134
11 l28 -24 -18 -36 c-14 -31 -15 -37 -3 -42 21 -8 65 25 73 54 9 39 -9 75 -52
99 -51 29 -128 31 -170 4z"/>
<path d="M3041 1988 c-100 -38 -162 -129 -147 -217 8 -52 55 -113 106 -138
113 -58 265 -3 234 84 -13 38 -31 39 -39 4 -4 -17 -16 -38 -28 -46 -28 -19
-100 -19 -138 0 -84 44 -93 172 -17 241 27 25 101 64 121 64 7 0 22 7 33 15
18 13 16 14 -26 14 -25 0 -69 -9 -99 -21z"/>
</g>
</svg>
